<?xml version="1.0" encoding="UTF-8"?>
<svg width="80px" height="80px" viewBox="0 0 80 80" version="1.1" xmlns="http://www.w3.org/2000/svg" xmlns:xlink="http://www.w3.org/1999/xlink">
    <!-- Generator: Sketch 62 (91390) - https://sketch.com -->
    <title>Icons (Decorative)/circles</title>
    <desc>Created with Sketch.</desc>
    <g id="Icons-(Decorative)/circles" stroke="none" stroke-width="1" fill="none" fill-rule="evenodd">
        <path d="M28,14 C13.652441,14 2,25.652441 2,40 C2,54.347559 13.652441,66 28,66 C32.328147,66 36.408267,64.933475 40,63.058594 C43.591733,64.933475 47.671853,66 52,66 C66.347559,66 78,54.347559 78,40 C78,25.652441 66.347559,14 52,14 C47.671853,14 43.591733,15.066525 40,16.941406 C36.408267,15.066525 32.328147,14 28,14 Z M28,16 C31.543846,16 34.903675,16.772979 37.929688,18.148438 C30.757484,22.779682 26,30.836906 26,40 C26,49.163094 30.757484,57.220318 37.929688,61.851562 C34.903675,63.227021 31.543846,64 28,64 C14.733321,64 4,53.266679 4,40 C4,26.733321 14.733321,16 28,16 Z M52,16 C52.676372,16 53.343743,16.035133 54.005859,16.089844 C54.0522872,16.6045284 54.4832266,16.9990621 55,17 C55.4258514,16.9991687 55.8044587,16.7287348 55.943359,16.326172 C58.468431,16.742769 60.857879,17.554952 63.050781,18.693359 C63.0179755,18.7923013 63.0008416,18.8957644 63,19 C63,19.5522847 63.4477153,20 64,20 C64.2855323,19.9990525 64.557041,19.8760916 64.746094,19.662109 C65.427279,20.089587 66.08595,20.549254 66.71875,21.041016 C66.2929397,21.1658125 66.0002887,21.5562788 66,22 C66,22.5522847 66.4477153,23 67,23 C67.5126963,22.9996471 67.9420707,22.6116073 67.994141,22.101562 C68.66417,22.700572 69.299428,23.33583 69.898438,24.005859 C69.3883927,24.0579293 69.0003529,24.4873037 69,25 C69,25.5522847 69.4477153,26 70,26 C70.4437212,25.9997113 70.8341875,25.7070603 70.958984,25.28125 C71.450196,25.913343 71.908864,26.571582 72.335938,27.251953 C72.1221714,27.4418132 71.9998944,27.7140926 72,28 C72,28.5522847 72.4477153,29 73,29 C73.1047876,29 73.208923,28.9835159 73.308594,28.951172 C74.446364,31.143438 75.257379,33.532464 75.673828,36.056641 C75.2712652,36.1955413 75.0008313,36.5741486 75,37 C74.9999285,37.5175226 75.3947264,37.9495977 75.910156,37.996094 C75.964761,38.657578 76,39.324288 76,40 C76,40.676372 75.964867,41.343743 75.910156,42.005859 C75.3954716,42.0522872 75.0009379,42.4832266 75,43 C75.0008313,43.4258514 75.2712652,43.8044587 75.673828,43.943359 C75.257231,46.468431 74.445048,48.857879 73.306641,51.050781 C73.2076987,51.0179755 73.1042356,51.0008416 73,51 C72.4477153,51 72,51.4477153 72,52 C72.0009475,52.2855323 72.1239084,52.557041 72.337891,52.746094 C71.910413,53.427279 71.450746,54.08595 70.958984,54.71875 C70.8341875,54.2929397 70.4437212,54.0002887 70,54 C69.4477153,54 69,54.4477153 69,55 C69.0003529,55.5126963 69.3883927,55.9420707 69.898438,55.994141 C69.299428,56.66417 68.66417,57.299428 67.994141,57.898438 C67.9420707,57.3883927 67.5126963,57.0003529 67,57 C66.4477153,57 66,57.4477153 66,58 C66.0002887,58.4437212 66.2929397,58.8341875 66.71875,58.958984 C66.086657,59.450196 65.428418,59.908864 64.748047,60.335938 C64.5581868,60.1221714 64.2859074,59.9998944 64,60 C63.4477153,60 63,60.4477153 63,61 C63.0000071,61.1047876 63.0164841,61.208923 63.048828,61.308594 C60.856562,62.446364 58.467536,63.257379 55.943359,63.673828 C55.8044587,63.2712652 55.4258514,63.0008313 55,63 C54.4824774,62.9999285 54.0504023,63.3947264 54.003906,63.910156 C53.342422,63.964761 52.675712,64 52,64 C51.323556,64 50.656134,63.963344 49.994141,63.908203 C49.9467661,63.3942914 49.5160899,63.0008448 49,63 C48.5736369,63.0011189 48.194875,63.2724472 48.056641,63.675781 C45.956858,63.327052 43.948675,62.705363 42.070312,61.851562 C46.467786,59.01202 49.952158,54.880603 51.994141,50 C51.996094,50 51.998047,50 52,50 C52.5522847,50 53,49.5522847 53,49 C52.9997441,48.7118073 52.8751663,48.4377362 52.658203,48.248047 C53.527328,45.65602 54,42.883306 54,40 C54,37.116694 53.527328,34.34398 52.658203,31.751953 C52.8751663,31.5622638 52.9997441,31.2881927 53,31 C53,30.4477153 52.5522847,30 52,30 C51.998047,30 51.996094,30 51.994141,30 C49.952158,25.119397 46.467786,20.98798 42.070312,18.148438 C43.948108,17.294895 45.955594,16.673008 48.054688,16.324219 C48.1931558,16.7282304 48.5729187,16.9997138 49,17 C49.5168388,17.0001635 49.9486498,16.6064536 49.996094,16.091797 C50.657456,16.036763 51.324216,16 52,16 Z M54,40 C54,40.5522847 54.4477153,41 55,41 C55.5522847,41 56,40.5522847 56,40 C56,39.4477153 55.5522847,39 55,39 C54.4477153,39 54,39.4477153 54,40 Z M46,18 C45.4477153,18 45,18.4477153 45,19 C45,19.5522847 45.4477153,20 46,20 C46.5522847,20 47,19.5522847 47,19 C47,18.4477153 46.5522847,18 46,18 Z M52,18 C51.4477153,18 51,18.4477153 51,19 C51,19.5522847 51.4477153,20 52,20 C52.5522847,20 53,19.5522847 53,19 C53,18.4477153 52.5522847,18 52,18 Z M58,18 C57.4477153,18 57,18.4477153 57,19 C57,19.5522847 57.4477153,20 58,20 C58.5522847,20 59,19.5522847 59,19 C59,18.4477153 58.5522847,18 58,18 Z M39.261719,19.673828 C39.4510576,19.881448 39.7190104,19.9998293 40,20 C40.2809896,19.9998293 40.5489424,19.881448 40.738281,19.673828 C41.41773,20.100162 42.079546,20.552789 42.710938,21.042969 C42.2889145,21.1703999 42.0001232,21.5591571 42,22 C42,22.5522847 42.4477153,23 43,23 C43.5072645,22.9994164 43.9337342,22.6191197 43.992188,22.115234 C44.65909,22.711434 45.29599,23.341334 45.892578,24.007812 C45.3855959,24.0625889 45.001033,24.4900683 45,25 C45,25.5522847 45.4477153,26 46,26 C46.4437212,25.9997113 46.8341875,25.7070603 46.958984,25.28125 C47.450975,25.913658 47.900395,26.578994 48.328125,27.259766 C48.1192795,27.4492148 48.0001214,27.7180297 48,28 C48,28.5522847 48.4477153,29 49,29 C49.1028215,28.9993849 49.2049331,28.9829153 49.302734,28.951172 C50.442186,31.143233 51.248878,33.533735 51.666016,36.058594 C51.2672113,36.1999022 51.0004963,36.5769007 51,37 C50.9998365,37.5168388 51.3935464,37.9486498 51.908203,37.996094 C51.962917,38.657861 52,39.323913 52,40 C52,40.676749 51.963023,41.343459 51.908203,42.005859 C51.3942914,42.0532339 51.0008448,42.4839101 51,43 C51.0004963,43.4230993 51.2672113,43.8000978 51.666016,43.941406 C51.248878,46.466265 50.442186,48.856767 49.302734,51.048828 C49.2049331,51.0170847 49.1028215,51.0006151 49,51 C48.4477153,51 48,51.4477153 48,52 C48.0006209,52.2822719 48.1205094,52.5511341 48.330078,52.740234 C47.902191,53.421321 47.451189,54.086067 46.958984,54.71875 C46.8341875,54.2929397 46.4437212,54.0002887 46,54 C45.4477153,54 45,54.4477153 45,55 C44.9999284,55.510009 45.3836758,55.9383588 45.890625,55.994141 C45.294575,56.659864 44.658403,57.28918 43.992188,57.884766 C43.9337342,57.3808803 43.5072645,57.0005836 43,57 C42.4477153,57 42,57.4477153 42,58 C42.0009828,58.4401204 42.2896048,58.8278567 42.710938,58.955078 C42.079246,59.445543 41.418081,59.899618 40.738281,60.326172 C40.5489424,60.118552 40.2809896,60.0001707 40,60 C39.7190104,60.0001707 39.4510576,60.118552 39.261719,60.326172 C38.58227,59.899838 37.920454,59.447211 37.289062,58.957031 C37.7110855,58.8296001 37.9998768,58.4408429 38,58 C38,57.4477153 37.5522847,57 37,57 C36.4927355,57.0005836 36.0662658,57.3808803 36.007812,57.884766 C35.34091,57.288566 34.70401,56.658666 34.107422,55.992188 C34.6144041,55.9374111 34.998967,55.5099317 35,55 C35,54.4477153 34.5522847,54 34,54 C33.5562788,54.0002887 33.1658125,54.2929397 33.041016,54.71875 C32.549025,54.086342 32.099605,53.421006 31.671875,52.740234 C31.8807205,52.5507852 31.9998786,52.2819703 32,52 C32,51.4477153 31.5522847,51 31,51 C30.8971785,51.0006151 30.7950669,51.0170847 30.697266,51.048828 C29.557814,48.856767 28.751122,46.466265 28.333984,43.941406 C28.7327887,43.8000978 28.9995037,43.4230993 29,43 C29.0001635,42.4831612 28.6064536,42.0513502 28.091797,42.003906 C28.037083,41.342139 28,40.676087 28,40 C28,39.323251 28.036977,38.656541 28.091797,37.994141 C28.6057086,37.9467661 28.9991552,37.5160899 29,37 C28.9995037,36.5769007 28.7327887,36.1999022 28.333984,36.058594 C28.751122,33.533735 29.557814,31.143233 30.697266,28.951172 C30.7950669,28.9829153 30.8971785,28.9993849 31,29 C31.5522847,29 32,28.5522847 32,28 C31.9993791,27.7177281 31.8794906,27.4488659 31.669922,27.259766 C32.097809,26.578679 32.548811,25.913933 33.041016,25.28125 C33.1658125,25.7070603 33.5562788,25.9997113 34,26 C34.5522847,26 35,25.5522847 35,25 C35.0000716,24.489991 34.6163242,24.0616412 34.109375,24.005859 C34.705425,23.340136 35.341597,22.71082 36.007812,22.115234 C36.0662658,22.6191197 36.4927355,22.9994164 37,23 C37.5522847,23 38,22.5522847 38,22 C37.9990172,21.5598796 37.7103952,21.1721433 37.289062,21.044922 C37.920754,20.554457 38.581919,20.100382 39.261719,19.673828 Z M49,21 C48.4477153,21 48,21.4477153 48,22 C48,22.5522847 48.4477153,23 49,23 C49.5522847,23 50,22.5522847 50,22 C50,21.4477153 49.5522847,21 49,21 Z M55,21 C54.4477153,21 54,21.4477153 54,22 C54,22.5522847 54.4477153,23 55,23 C55.5522847,23 56,22.5522847 56,22 C56,21.4477153 55.5522847,21 55,21 Z M61,21 C60.4477153,21 60,21.4477153 60,22 C60,22.5522847 60.4477153,23 61,23 C61.5522847,23 62,22.5522847 62,22 C62,21.4477153 61.5522847,21 61,21 Z M40,24 C39.4477153,24 39,24.4477153 39,25 C39,25.5522847 39.4477153,26 40,26 C40.5522847,26 41,25.5522847 41,25 C41,24.4477153 40.5522847,24 40,24 Z M52,24 C51.4477153,24 51,24.4477153 51,25 C51,25.5522847 51.4477153,26 52,26 C52.5522847,26 53,25.5522847 53,25 C53,24.4477153 52.5522847,24 52,24 Z M58,24 C57.4477153,24 57,24.4477153 57,25 C57,25.5522847 57.4477153,26 58,26 C58.5522847,26 59,25.5522847 59,25 C59,24.4477153 58.5522847,24 58,24 Z M64,24 C63.4477153,24 63,24.4477153 63,25 C63,25.5522847 63.4477153,26 64,26 C64.5522847,26 65,25.5522847 65,25 C65,24.4477153 64.5522847,24 64,24 Z M37,27 C36.4477153,27 36,27.4477153 36,28 C36,28.5522847 36.4477153,29 37,29 C37.5522847,29 38,28.5522847 38,28 C38,27.4477153 37.5522847,27 37,27 Z M43,27 C42.4477153,27 42,27.4477153 42,28 C42,28.5522847 42.4477153,29 43,29 C43.5522847,29 44,28.5522847 44,28 C44,27.4477153 43.5522847,27 43,27 Z M55,27 C54.4477153,27 54,27.4477153 54,28 C54,28.5522847 54.4477153,29 55,29 C55.5522847,29 56,28.5522847 56,28 C56,27.4477153 55.5522847,27 55,27 Z M61,27 C60.4477153,27 60,27.4477153 60,28 C60,28.5522847 60.4477153,29 61,29 C61.5522847,29 62,28.5522847 62,28 C62,27.4477153 61.5522847,27 61,27 Z M67,27 C66.4477153,27 66,27.4477153 66,28 C66,28.5522847 66.4477153,29 67,29 C67.5522847,29 68,28.5522847 68,28 C68,27.4477153 67.5522847,27 67,27 Z M34,30 C33.4477153,30 33,30.4477153 33,31 C33,31.5522847 33.4477153,32 34,32 C34.5522847,32 35,31.5522847 35,31 C35,30.4477153 34.5522847,30 34,30 Z M40,30 C39.4477153,30 39,30.4477153 39,31 C39,31.5522847 39.4477153,32 40,32 C40.5522847,32 41,31.5522847 41,31 C41,30.4477153 40.5522847,30 40,30 Z M46,30 C45.4477153,30 45,30.4477153 45,31 C45,31.5522847 45.4477153,32 46,32 C46.5522847,32 47,31.5522847 47,31 C47,30.4477153 46.5522847,30 46,30 Z M58,30 C57.4477153,30 57,30.4477153 57,31 C57,31.5522847 57.4477153,32 58,32 C58.5522847,32 59,31.5522847 59,31 C59,30.4477153 58.5522847,30 58,30 Z M64,30 C63.4477153,30 63,30.4477153 63,31 C63,31.5522847 63.4477153,32 64,32 C64.5522847,32 65,31.5522847 65,31 C65,30.4477153 64.5522847,30 64,30 Z M70,30 C69.4477153,30 69,30.4477153 69,31 C69,31.5522847 69.4477153,32 70,32 C70.5522847,32 71,31.5522847 71,31 C71,30.4477153 70.5522847,30 70,30 Z M31,33 C30.4477153,33 30,33.4477153 30,34 C30,34.5522847 30.4477153,35 31,35 C31.5522847,35 32,34.5522847 32,34 C32,33.4477153 31.5522847,33 31,33 Z M37,33 C36.4477153,33 36,33.4477153 36,34 C36,34.5522847 36.4477153,35 37,35 C37.5522847,35 38,34.5522847 38,34 C38,33.4477153 37.5522847,33 37,33 Z M43,33 C42.4477153,33 42,33.4477153 42,34 C42,34.5522847 42.4477153,35 43,35 C43.5522847,35 44,34.5522847 44,34 C44,33.4477153 43.5522847,33 43,33 Z M49,33 C48.4477153,33 48,33.4477153 48,34 C48,34.5522847 48.4477153,35 49,35 C49.5522847,35 50,34.5522847 50,34 C50,33.4477153 49.5522847,33 49,33 Z M55,33 C54.4477153,33 54,33.4477153 54,34 C54,34.5522847 54.4477153,35 55,35 C55.5522847,35 56,34.5522847 56,34 C56,33.4477153 55.5522847,33 55,33 Z M61,33 C60.4477153,33 60,33.4477153 60,34 C60,34.5522847 60.4477153,35 61,35 C61.5522847,35 62,34.5522847 62,34 C62,33.4477153 61.5522847,33 61,33 Z M67,33 C66.4477153,33 66,33.4477153 66,34 C66,34.5522847 66.4477153,35 67,35 C67.5522847,35 68,34.5522847 68,34 C68,33.4477153 67.5522847,33 67,33 Z M73,33 C72.4477153,33 72,33.4477153 72,34 C72,34.5522847 72.4477153,35 73,35 C73.5522847,35 74,34.5522847 74,34 C74,33.4477153 73.5522847,33 73,33 Z M34,36 C33.4477153,36 33,36.4477153 33,37 C33,37.5522847 33.4477153,38 34,38 C34.5522847,38 35,37.5522847 35,37 C35,36.4477153 34.5522847,36 34,36 Z M40,36 C39.4477153,36 39,36.4477153 39,37 C39,37.5522847 39.4477153,38 40,38 C40.5522847,38 41,37.5522847 41,37 C41,36.4477153 40.5522847,36 40,36 Z M46,36 C45.4477153,36 45,36.4477153 45,37 C45,37.5522847 45.4477153,38 46,38 C46.5522847,38 47,37.5522847 47,37 C47,36.4477153 46.5522847,36 46,36 Z M58,36 C57.4477153,36 57,36.4477153 57,37 C57,37.5522847 57.4477153,38 58,38 C58.5522847,38 59,37.5522847 59,37 C59,36.4477153 58.5522847,36 58,36 Z M64,36 C63.4477153,36 63,36.4477153 63,37 C63,37.5522847 63.4477153,38 64,38 C64.5522847,38 65,37.5522847 65,37 C65,36.4477153 64.5522847,36 64,36 Z M70,36 C69.4477153,36 69,36.4477153 69,37 C69,37.5522847 69.4477153,38 70,38 C70.5522847,38 71,37.5522847 71,37 C71,36.4477153 70.5522847,36 70,36 Z M31,39 C30.4477153,39 30,39.4477153 30,40 C30,40.5522847 30.4477153,41 31,41 C31.5522847,41 32,40.5522847 32,40 C32,39.4477153 31.5522847,39 31,39 Z M37,39 C36.4477153,39 36,39.4477153 36,40 C36,40.5522847 36.4477153,41 37,41 C37.5522847,41 38,40.5522847 38,40 C38,39.4477153 37.5522847,39 37,39 Z M43,39 C42.4477153,39 42,39.4477153 42,40 C42,40.5522847 42.4477153,41 43,41 C43.5522847,41 44,40.5522847 44,40 C44,39.4477153 43.5522847,39 43,39 Z M49,39 C48.4477153,39 48,39.4477153 48,40 C48,40.5522847 48.4477153,41 49,41 C49.5522847,41 50,40.5522847 50,40 C50,39.4477153 49.5522847,39 49,39 Z M61,39 C60.4477153,39 60,39.4477153 60,40 C60,40.5522847 60.4477153,41 61,41 C61.5522847,41 62,40.5522847 62,40 C62,39.4477153 61.5522847,39 61,39 Z M67,39 C66.4477153,39 66,39.4477153 66,40 C66,40.5522847 66.4477153,41 67,41 C67.5522847,41 68,40.5522847 68,40 C68,39.4477153 67.5522847,39 67,39 Z M73,39 C72.4477153,39 72,39.4477153 72,40 C72,40.5522847 72.4477153,41 73,41 C73.5522847,41 74,40.5522847 74,40 C74,39.4477153 73.5522847,39 73,39 Z M34,42 C33.4477153,42 33,42.4477153 33,43 C33,43.5522847 33.4477153,44 34,44 C34.5522847,44 35,43.5522847 35,43 C35,42.4477153 34.5522847,42 34,42 Z M40,42 C39.4477153,42 39,42.4477153 39,43 C39,43.5522847 39.4477153,44 40,44 C40.5522847,44 41,43.5522847 41,43 C41,42.4477153 40.5522847,42 40,42 Z M46,42 C45.4477153,42 45,42.4477153 45,43 C45,43.5522847 45.4477153,44 46,44 C46.5522847,44 47,43.5522847 47,43 C47,42.4477153 46.5522847,42 46,42 Z M58,42 C57.4477153,42 57,42.4477153 57,43 C57,43.5522847 57.4477153,44 58,44 C58.5522847,44 59,43.5522847 59,43 C59,42.4477153 58.5522847,42 58,42 Z M64,42 C63.4477153,42 63,42.4477153 63,43 C63,43.5522847 63.4477153,44 64,44 C64.5522847,44 65,43.5522847 65,43 C65,42.4477153 64.5522847,42 64,42 Z M70,42 C69.4477153,42 69,42.4477153 69,43 C69,43.5522847 69.4477153,44 70,44 C70.5522847,44 71,43.5522847 71,43 C71,42.4477153 70.5522847,42 70,42 Z M31,45 C30.4477153,45 30,45.4477153 30,46 C30,46.5522847 30.4477153,47 31,47 C31.5522847,47 32,46.5522847 32,46 C32,45.4477153 31.5522847,45 31,45 Z M37,45 C36.4477153,45 36,45.4477153 36,46 C36,46.5522847 36.4477153,47 37,47 C37.5522847,47 38,46.5522847 38,46 C38,45.4477153 37.5522847,45 37,45 Z M43,45 C42.4477153,45 42,45.4477153 42,46 C42,46.5522847 42.4477153,47 43,47 C43.5522847,47 44,46.5522847 44,46 C44,45.4477153 43.5522847,45 43,45 Z M49,45 C48.4477153,45 48,45.4477153 48,46 C48,46.5522847 48.4477153,47 49,47 C49.5522847,47 50,46.5522847 50,46 C50,45.4477153 49.5522847,45 49,45 Z M55,45 C54.4477153,45 54,45.4477153 54,46 C54,46.5522847 54.4477153,47 55,47 C55.5522847,47 56,46.5522847 56,46 C56,45.4477153 55.5522847,45 55,45 Z M61,45 C60.4477153,45 60,45.4477153 60,46 C60,46.5522847 60.4477153,47 61,47 C61.5522847,47 62,46.5522847 62,46 C62,45.4477153 61.5522847,45 61,45 Z M67,45 C66.4477153,45 66,45.4477153 66,46 C66,46.5522847 66.4477153,47 67,47 C67.5522847,47 68,46.5522847 68,46 C68,45.4477153 67.5522847,45 67,45 Z M73,45 C72.4477153,45 72,45.4477153 72,46 C72,46.5522847 72.4477153,47 73,47 C73.5522847,47 74,46.5522847 74,46 C74,45.4477153 73.5522847,45 73,45 Z M34,48 C33.4477153,48 33,48.4477153 33,49 C33,49.5522847 33.4477153,50 34,50 C34.5522847,50 35,49.5522847 35,49 C35,48.4477153 34.5522847,48 34,48 Z M40,48 C39.4477153,48 39,48.4477153 39,49 C39,49.5522847 39.4477153,50 40,50 C40.5522847,50 41,49.5522847 41,49 C41,48.4477153 40.5522847,48 40,48 Z M46,48 C45.4477153,48 45,48.4477153 45,49 C45,49.5522847 45.4477153,50 46,50 C46.5522847,50 47,49.5522847 47,49 C47,48.4477153 46.5522847,48 46,48 Z M58,48 C57.4477153,48 57,48.4477153 57,49 C57,49.5522847 57.4477153,50 58,50 C58.5522847,50 59,49.5522847 59,49 C59,48.4477153 58.5522847,48 58,48 Z M64,48 C63.4477153,48 63,48.4477153 63,49 C63,49.5522847 63.4477153,50 64,50 C64.5522847,50 65,49.5522847 65,49 C65,48.4477153 64.5522847,48 64,48 Z M70,48 C69.4477153,48 69,48.4477153 69,49 C69,49.5522847 69.4477153,50 70,50 C70.5522847,50 71,49.5522847 71,49 C71,48.4477153 70.5522847,48 70,48 Z M37,51 C36.4477153,51 36,51.4477153 36,52 C36,52.5522847 36.4477153,53 37,53 C37.5522847,53 38,52.5522847 38,52 C38,51.4477153 37.5522847,51 37,51 Z M43,51 C42.4477153,51 42,51.4477153 42,52 C42,52.5522847 42.4477153,53 43,53 C43.5522847,53 44,52.5522847 44,52 C44,51.4477153 43.5522847,51 43,51 Z M55,51 C54.4477153,51 54,51.4477153 54,52 C54,52.5522847 54.4477153,53 55,53 C55.5522847,53 56,52.5522847 56,52 C56,51.4477153 55.5522847,51 55,51 Z M61,51 C60.4477153,51 60,51.4477153 60,52 C60,52.5522847 60.4477153,53 61,53 C61.5522847,53 62,52.5522847 62,52 C62,51.4477153 61.5522847,51 61,51 Z M67,51 C66.4477153,51 66,51.4477153 66,52 C66,52.5522847 66.4477153,53 67,53 C67.5522847,53 68,52.5522847 68,52 C68,51.4477153 67.5522847,51 67,51 Z M40,54 C39.4477153,54 39,54.4477153 39,55 C39,55.5522847 39.4477153,56 40,56 C40.5522847,56 41,55.5522847 41,55 C41,54.4477153 40.5522847,54 40,54 Z M52,54 C51.4477153,54 51,54.4477153 51,55 C51,55.5522847 51.4477153,56 52,56 C52.5522847,56 53,55.5522847 53,55 C53,54.4477153 52.5522847,54 52,54 Z M58,54 C57.4477153,54 57,54.4477153 57,55 C57,55.5522847 57.4477153,56 58,56 C58.5522847,56 59,55.5522847 59,55 C59,54.4477153 58.5522847,54 58,54 Z M64,54 C63.4477153,54 63,54.4477153 63,55 C63,55.5522847 63.4477153,56 64,56 C64.5522847,56 65,55.5522847 65,55 C65,54.4477153 64.5522847,54 64,54 Z M49,57 C48.4477153,57 48,57.4477153 48,58 C48,58.5522847 48.4477153,59 49,59 C49.5522847,59 50,58.5522847 50,58 C50,57.4477153 49.5522847,57 49,57 Z M55,57 C54.4477153,57 54,57.4477153 54,58 C54,58.5522847 54.4477153,59 55,59 C55.5522847,59 56,58.5522847 56,58 C56,57.4477153 55.5522847,57 55,57 Z M61,57 C60.4477153,57 60,57.4477153 60,58 C60,58.5522847 60.4477153,59 61,59 C61.5522847,59 62,58.5522847 62,58 C62,57.4477153 61.5522847,57 61,57 Z M46,60 C45.4477153,60 45,60.4477153 45,61 C45,61.5522847 45.4477153,62 46,62 C46.5522847,62 47,61.5522847 47,61 C47,60.4477153 46.5522847,60 46,60 Z M52,60 C51.4477153,60 51,60.4477153 51,61 C51,61.5522847 51.4477153,62 52,62 C52.5522847,62 53,61.5522847 53,61 C53,60.4477153 52.5522847,60 52,60 Z M58,60 C57.4477153,60 57,60.4477153 57,61 C57,61.5522847 57.4477153,62 58,62 C58.5522847,62 59,61.5522847 59,61 C59,60.4477153 58.5522847,60 58,60 Z" id="icon" fill="#151515"></path>
    </g>
</svg>