<?xml version="1.0" encoding="UTF-8"?>
<svg width="80px" height="80px" viewBox="0 0 80 80" version="1.1" xmlns="http://www.w3.org/2000/svg" xmlns:xlink="http://www.w3.org/1999/xlink">
    <!-- Generator: Sketch 62 (91390) - https://sketch.com -->
    <title>Icons (Decorative)/multichannel</title>
    <desc>Created with Sketch.</desc>
    <g id="Icons-(Decorative)/multichannel" stroke="none" stroke-width="1" fill="none" fill-rule="evenodd">
        <path d="M40,3 C37.250421,3 35,5.2504209 35,8 C35,10.749579 37.250421,13 40,13 C42.749579,13 45,10.749579 45,8 C45,5.2504209 42.749579,3 40,3 Z M40,5 C41.668699,5 43,6.3313011 43,8 C43,9.6686989 41.668699,11 40,11 C38.331301,11 37,9.6686989 37,8 C37,6.3313011 38.331301,5 40,5 Z M40,15 L39.199219,15.402344 L39.041016,16.283203 L39.652344,16.9375 L40,17 L40.800781,16.597656 L40.958984,15.716797 L40.347656,15.0625 L40,15 Z M12,18 C9.2504209,18 7,20.250421 7,23 C7,25.749579 9.2504209,28 12,28 C14.749579,28 17,25.749579 17,23 C17,20.250421 14.749579,18 12,18 Z M68,18 C65.250421,18 63,20.250421 63,23 C63,25.749579 65.250421,28 68,28 C70.749579,28 73,25.749579 73,23 C73,20.250421 70.749579,18 68,18 Z M40,19 L39.199219,19.402344 L39.041016,20.283203 L39.652344,20.9375 L40,21 L40.800781,20.597656 L40.958984,19.716797 L40.347656,19.0625 L40,19 Z M12,20 C13.668699,20 15,21.331301 15,23 C15,24.668699 13.668699,26 12,26 C10.331301,26 9,24.668699 9,23 C9,21.331301 10.331301,20 12,20 Z M68,20 C69.668699,20 71,21.331301 71,23 C71,24.668699 69.668699,26 68,26 C66.331301,26 65,24.668699 65,23 C65,21.331301 66.331301,20 68,20 Z M40,23 L39.199219,23.402344 L39.041016,24.283203 L39.652344,24.9375 L40,25 L40.800781,24.597656 L40.958984,23.716797 L40.347656,23.0625 L40,23 Z M60.365234,26.837891 L59.564453,27.238281 L59.40625,28.121094 L60.017578,28.775391 L60.365234,28.837891 L61.166016,28.435547 L61.324219,27.552734 L60.710938,26.898438 L60.365234,26.837891 Z M19.634766,26.908203 L18.833984,27.308594 L18.675781,28.191406 L19.289062,28.845703 L19.634766,28.908203 L20.435547,28.505859 L20.59375,27.625 L19.982422,26.970703 L19.634766,26.908203 Z M28,29 C26.906937,29 26,29.906937 26,31 L26,51 C26,52.093063 26.906937,53 28,53 L52,53 C53.093063,53 54,52.093063 54,51 L54,31 C54,29.906937 53.093063,29 52,29 L28,29 Z M57,29 L56.199219,29.402344 L56.041016,30.283203 L56.652344,30.9375 L57,31 L57.800781,30.597656 L57.958984,29.716797 L57.347656,29.0625 L57,29 Z M23,29.070312 L22.199219,29.472656 L22.041016,30.353516 L22.652344,31.009766 L23,31.070312 L23.800781,30.669922 L23.958984,29.787109 L23.347656,29.132812 L23,29.070312 Z M28,31 L52,31 L52,51 L28,51 L28,31 Z M35,33 C34.6393641,32.9948997 34.3039186,33.1843753 34.1221123,33.4958728 C33.9403059,33.8073704 33.9403059,34.1926296 34.1221123,34.5041272 C34.3039186,34.8156247 34.6393641,35.0051003 35,35 L45,35 C45.3606359,35.0051003 45.6960814,34.8156247 45.8778877,34.5041272 C46.0596941,34.1926296 46.0596941,33.8073704 45.8778877,33.4958728 C45.6960814,33.1843753 45.3606359,32.9948997 45,33 L35,33 Z M57,51 L56.199219,51.402344 L56.041016,52.283203 L56.652344,52.9375 L57,53 L57.800781,52.597656 L57.958984,51.716797 L57.347656,51.0625 L57,51 Z M23,51.070312 L22.199219,51.472656 L22.041016,52.353516 L22.652344,53.009766 L23,53.070312 L23.800781,52.669922 L23.958984,51.787109 L23.347656,51.132812 L23,51.070312 Z M60.365234,53.162109 L59.564453,53.564453 L59.40625,54.447266 L60.017578,55.101562 L60.365234,55.162109 L61.166016,54.761719 L61.324219,53.878906 L60.710938,53.224609 L60.365234,53.162109 Z M19.634766,53.234375 L18.833984,53.634766 L18.675781,54.517578 L19.289062,55.171875 L19.634766,55.234375 L20.435547,54.832031 L20.59375,53.951172 L19.982422,53.296875 L19.634766,53.234375 Z M12,54 C9.2504209,54 7,56.250421 7,59 C7,61.749579 9.2504209,64 12,64 C14.749579,64 17,61.749579 17,59 C17,56.250421 14.749579,54 12,54 Z M68,54 C65.250421,54 63,56.250421 63,59 C63,61.749579 65.250421,64 68,64 C70.749579,64 73,61.749579 73,59 C73,56.250421 70.749579,54 68,54 Z M40,55 L39.199219,55.402344 L39.041016,56.283203 L39.652344,56.9375 L40,57 L40.800781,56.597656 L40.958984,55.716797 L40.347656,55.0625 L40,55 Z M12,56 C13.668699,56 15,57.331301 15,59 C15,60.668699 13.668699,62 12,62 C10.331301,62 9,60.668699 9,59 C9,57.331301 10.331301,56 12,56 Z M68,56 C69.668699,56 71,57.331301 71,59 C71,60.668699 69.668699,62 68,62 C66.331301,62 65,60.668699 65,59 C65,57.331301 66.331301,56 68,56 Z M40,59 L39.199219,59.402344 L39.041016,60.283203 L39.652344,60.9375 L40,61 L40.800781,60.597656 L40.958984,59.716797 L40.347656,59.0625 L40,59 Z M40,63 L39.199219,63.402344 L39.041016,64.283203 L39.652344,64.9375 L40,65 L40.800781,64.597656 L40.958984,63.716797 L40.347656,63.0625 L40,63 Z M40,67 C37.250421,67 35,69.250421 35,72 C35,74.749579 37.250421,77 40,77 C42.749579,77 45,74.749579 45,72 C45,69.250421 42.749579,67 40,67 Z M40,69 C41.668699,69 43,70.331301 43,72 C43,73.668699 41.668699,75 40,75 C38.331301,75 37,73.668699 37,72 C37,70.331301 38.331301,69 40,69 Z" id="icon" fill="#151515"></path>
    </g>
</svg>