<?xml version="1.0" encoding="UTF-8"?>
<svg width="80px" height="80px" viewBox="0 0 80 80" version="1.1" xmlns="http://www.w3.org/2000/svg" xmlns:xlink="http://www.w3.org/1999/xlink">
    <!-- Generator: Sketch 62 (91390) - https://sketch.com -->
    <title>Icons (Decorative)/laurel-wreath</title>
    <desc>Created with Sketch.</desc>
    <g id="Icons-(Decorative)/laurel-wreath" stroke="none" stroke-width="1" fill="none" fill-rule="evenodd">
        <path d="M26.484375,6.65625 L25.554688,7.0898438 C25.554688,7.0898438 21.09638,9.080981 19.552734,13.443359 C18.248959,17.127861 19.484682,20.799944 19.917969,21.90625 C19.704709,22.288007 19.218895,23.202136 18.533203,24.796875 C17.10146,20.458005 12.710936,18.125 12.710938,18.125 L11.814453,17.628906 L11.339844,18.537109 C11.339844,18.537109 9.0335417,22.793484 10.451172,27.158203 C11.757997,31.181765 15.471058,33.396075 16.066406,33.732422 C16.004314,34.367198 15.997794,34.901355 16.005859,35.330078 C16.005448,35.378879 16,35.427778 16,35.476562 C16,36.102523 16.023993,36.711104 16.0625,37.308594 C13.240202,34.533561 9.1914064,34.009766 9.1914062,34.009766 L8.1777344,33.861328 L8.0546875,34.880859 C8.0546875,34.880859 7.4134051,39.537312 10.201172,43.023438 C12.990015,46.509492 17.808594,47.123047 17.808594,47.123047 L18.822266,47.271484 L18.830078,47.212891 C19.217686,47.939841 19.640431,48.63369 20.087891,49.304688 C19.056314,49.037188 18.028448,48.957965 17.0625,49.001953 C13.992451,49.141763 11.541016,50.460936 11.541016,50.460938 L10.630859,50.931641 L11.123047,51.830078 C11.123047,51.830078 13.355703,56.067888 17.728516,57.300781 C22.078118,58.527131 26.397698,56.219796 26.443359,56.195312 C27.031972,56.68901 27.622699,57.181367 28.222656,57.642578 C28.395689,57.775595 28.56881,57.898308 28.742188,58.029297 C28.454089,58.007456 28.160784,57.995928 27.861328,58.003906 C23.544095,58.118926 20.265625,61.470703 20.265625,61.470703 L19.533203,62.189453 L20.271484,62.902344 C20.271484,62.902344 23.481769,66.111923 27.798828,65.998047 C31.814753,65.891054 34.816886,63.083084 35.232422,62.677734 C36.372721,63.489343 37.426876,64.283002 38.410156,65.076172 C36.992434,66.446036 35.832343,67.916936 35.085938,69.59375 C34.9406846,69.9203325 34.9807296,70.2996033 35.1909836,70.5886498 C35.4012376,70.8776964 35.7497461,71.0325891 36.105188,70.9949631 C36.4606299,70.9573371 36.7689849,70.7329108 36.914062,70.40625 C37.538985,69.002353 38.618294,67.697431 40,66.417969 C41.381706,67.697431 42.461015,69.002353 43.085938,70.40625 C43.2310151,70.7329108 43.5393701,70.9573371 43.894812,70.9949631 C44.2502539,71.0325891 44.5987624,70.8776964 44.8090164,70.5886498 C45.0192704,70.2996033 45.0593154,69.9203325 44.914062,69.59375 C44.167657,67.916936 43.007566,66.446036 41.589844,65.076172 C42.573124,64.283002 43.627279,63.489343 44.767578,62.677734 C45.183114,63.083084 48.185247,65.891054 52.201172,65.998047 C56.518231,66.111923 59.728516,62.902344 59.728516,62.902344 L60.466797,62.189453 L59.734375,61.470703 C59.734375,61.470703 56.455905,58.118926 52.138672,58.003906 C51.834466,57.995802 51.539666,58.011153 51.248047,58.035156 C51.424463,57.90191 51.601283,57.777923 51.777344,57.642578 C52.379179,57.179924 52.974316,56.694783 53.564453,56.199219 C53.632673,56.235724 57.933427,58.523876 62.271484,57.300781 C66.644297,56.067888 68.876953,51.830078 68.876953,51.830078 L69.369141,50.931641 L68.458984,50.460938 C68.458984,50.460938 66.007549,49.141763 62.9375,49.001953 C61.969675,48.957882 60.939846,49.037892 59.90625,49.306641 C59.910564,49.298066 59.913667,49.287899 59.917969,49.279297 C60.360363,48.614005 60.786024,47.932883 61.169922,47.212891 L61.177734,47.271484 L62.191406,47.123047 C62.191406,47.123047 67.009985,46.509492 69.798828,43.023438 C72.586512,39.537413 71.947266,34.880859 71.947266,34.880859 L71.824219,33.861328 L70.808594,34.009766 C70.808594,34.009766 66.760399,34.532989 63.9375,37.308594 C63.975186,36.72385 63.997049,36.127509 63.998047,35.515625 C64.016023,35.071984 64.005607,34.465508 63.933594,33.730469 C64.511858,33.404556 68.238675,31.192016 69.548828,27.158203 C70.967649,22.793297 68.660156,18.537109 68.660156,18.537109 L68.185547,17.628906 L67.289062,18.125 C67.289062,18.125 62.89854,20.458005 61.466797,24.796875 C60.781105,23.202136 60.295291,22.288007 60.082031,21.90625 C60.515318,20.799944 61.751041,17.127861 60.447266,13.443359 C58.90362,9.080981 54.445313,7.0898436 54.445312,7.0898438 L53.515625,6.65625 L53.105469,7.5976562 C53.105469,7.5976562 51.009091,12.186456 52.552734,16.548828 C53.938627,20.465392 57.510786,22.379103 58.259766,22.748047 C58.422573,23.04624 59.146831,24.407612 59.917969,26.337891 C57.260603,24.40582 54.191406,24.009766 54.191406,24.009766 L53.175781,23.861328 L53.052734,24.880859 C53.052734,24.880859 52.413488,29.537415 55.201172,33.023438 C57.2687,35.607848 60.442913,36.609707 61.951172,36.957031 C61.827868,39.23904 61.419378,41.287713 60.789062,43.148438 C60.06866,39.868225 57.707031,37.585938 57.707031,37.585938 L57,36.876953 L56.292969,37.585938 C56.292969,37.585938 53,40.755189 53,45 C53,47.987513 54.612303,50.404484 55.578125,51.595703 C54.375041,52.873799 53.055964,54.036028 51.689453,55.140625 C52.582919,51.800351 51.330078,48.646484 51.330078,48.646484 L50.966797,47.6875 L50.017578,48.074219 C50.017578,48.074219 45.793203,49.696225 44.039062,53.488281 C42.593362,56.611524 43.402907,59.791663 43.746094,60.863281 C42.416684,61.788728 41.160379,62.717717 40,63.677734 C38.839621,62.717717 37.583316,61.788728 36.253906,60.863281 C36.597093,59.791663 37.406638,56.611524 35.960938,53.488281 C34.206797,49.696225 29.982422,48.074219 29.982422,48.074219 L29.033203,47.6875 L28.669922,48.646484 C28.669922,48.646484 27.417081,51.800351 28.310547,55.140625 C26.944036,54.036028 25.624959,52.873799 24.421875,51.595703 C25.387697,50.404484 27,47.987513 27,45 C27,40.755189 23.707031,37.585938 23.707031,37.585938 L23,36.876953 L22.292969,37.585938 C22.292969,37.585938 19.93134,39.868225 19.210938,43.148438 C18.580622,41.287713 18.172132,39.23904 18.048828,36.957031 C19.557087,36.609707 22.7313,35.607848 24.798828,33.023438 C27.586595,29.537312 26.945313,24.880859 26.945312,24.880859 L26.822266,23.861328 L25.808594,24.009766 C25.808594,24.009766 22.74946,24.404875 20.095703,26.330078 C20.90291,24.321662 21.576225,23.048442 21.740234,22.748047 C22.489214,22.379103 26.061373,20.465392 27.447266,16.548828 C28.990909,12.186456 26.894531,7.5976564 26.894531,7.5976562 L26.484375,6.65625 Z M25.390625,9.566406 C25.80657,10.844969 26.471203,13.309278 25.560547,15.882812 C24.663695,18.417337 22.721054,19.754879 21.609375,20.425781 C21.19343,19.147218 20.528797,16.68291 21.439453,14.109375 C22.336305,11.57485 24.278946,10.237309 25.390625,9.566406 Z M54.609375,9.566406 C55.721054,10.237309 57.663695,11.57485 58.560547,14.109375 C59.471203,16.68291 58.80657,19.147218 58.390625,20.425781 C57.278946,19.754879 55.336305,18.417337 54.439453,15.882812 C53.528797,13.309278 54.19343,10.844969 54.609375,9.566406 Z M16,14 C15.4477153,14 15,14.4477153 15,15 C15,15.5522847 15.4477153,16 16,16 C16.5522847,16 17,15.5522847 17,15 C17,14.4477153 16.5522847,14 16,14 Z M64,14 C63.4477153,14 63,14.4477153 63,15 C63,15.5522847 63.4477153,16 64,16 C64.5522847,16 65,15.5522847 65,15 C65,14.4477153 64.5522847,14 64,14 Z M30,19 C29.4477153,19 29,19.4477153 29,20 C29,20.5522847 29.4477153,21 30,21 C30.5522847,21 31,20.5522847 31,20 C31,19.4477153 30.5522847,19 30,19 Z M50,19 C49.4477153,19 49,19.4477153 49,20 C49,20.5522847 49.4477153,21 50,21 C50.5522847,21 51,20.5522847 51,20 C51,19.4477153 50.5522847,19 50,19 Z M12.71875,20.603516 C13.820948,21.362824 15.815027,22.893163 16.646484,25.453125 C17.465344,27.974298 16.751019,30.187399 16.28125,31.390625 C15.179052,30.631317 13.184973,29.100978 12.353516,26.541016 C11.534656,24.019843 12.248981,21.806742 12.71875,20.603516 Z M67.28125,20.603516 C67.751204,21.806674 68.465951,24.01803 67.646484,26.539062 L67.646484,26.541016 C66.815027,29.100978 64.820948,30.631317 63.71875,31.390625 C63.248981,30.187399 62.534656,27.974298 63.353516,25.453125 C64.184973,22.893163 66.179052,21.362824 67.28125,20.603516 Z M24.927734,26.330078 C24.936834,27.599014 24.811998,29.801885 23.236328,31.773438 C21.63193,33.778934 19.347769,34.484285 18.072266,34.804688 C18.063066,33.535941 18.187827,31.331622 19.765625,29.359375 C21.370085,27.3538 23.652521,26.650457 24.927734,26.330078 Z M55.072266,26.330078 C56.348211,26.650692 58.630387,27.35439 60.234375,29.359375 C61.220499,30.592029 61.639521,31.916031 61.8125,33.044922 C61.813435,33.051378 61.813524,33.057996 61.814453,33.064453 C61.915462,33.733631 61.931151,34.333661 61.927734,34.804688 C60.652231,34.484285 58.36807,33.778934 56.763672,31.773438 C55.188417,29.802405 55.063516,27.599534 55.072266,26.330078 Z M9,29 C8.44771525,29 8,29.4477153 8,30 C8,30.5522847 8.44771525,31 9,31 C9.55228475,31 10,30.5522847 10,30 C10,29.4477153 9.55228475,29 9,29 Z M71,29 C70.4477153,29 70,29.4477153 70,30 C70,30.5522847 70.4477153,31 71,31 C71.5522847,31 72,30.5522847 72,30 C72,29.4477153 71.5522847,29 71,29 Z M27,34 C26.4477153,34 26,34.4477153 26,35 C26,35.5522847 26.4477153,36 27,36 C27.5522847,36 28,35.5522847 28,35 C28,34.4477153 27.5522847,34 27,34 Z M53,34 C52.4477153,34 52,34.4477153 52,35 C52,35.5522847 52.4477153,36 53,36 C53.5522847,36 54,35.5522847 54,35 C54,34.4477153 53.5522847,34 53,34 Z M10.072266,36.330078 C11.347788,36.650737 13.630767,37.354702 15.234375,39.359375 C16.812173,41.331622 16.936938,43.535941 16.927734,44.804688 C15.652231,44.484285 13.36807,43.778934 11.763672,41.773438 C10.188002,39.801884 10.063137,37.599014 10.072266,36.330078 Z M69.927734,36.330078 C69.936434,37.599534 69.811583,39.802405 68.236328,41.773438 C66.63193,43.778934 64.347769,44.484285 63.072266,44.804688 C63.063066,43.535941 63.187827,41.331622 64.765625,39.359375 C66.369613,37.35439 68.651789,36.650692 69.927734,36.330078 Z M23,39.945312 C23.771905,40.913309 25,42.661201 25,45 C25,47.309997 23.804494,49.036698 23.03125,50.011719 C22.747937,49.6613 22.472279,49.30256 22.207031,48.935547 C21.58889,47.945613 21,46.618661 21,45 C21,42.661201 22.228095,40.91331 23,39.945312 Z M57,39.945312 C57.771905,40.913309 59,42.661201 59,45 C59,46.618661 58.41111,47.945613 57.792969,48.935547 C57.527721,49.30256 57.252063,49.6613 56.96875,50.011719 C56.195506,49.036699 55,47.309997 55,45 C55,42.661201 56.228095,40.91331 57,39.945312 Z M31,43 C30.4477153,43 30,43.4477153 30,44 C30,44.5522847 30.4477153,45 31,45 C31.5522847,45 32,44.5522847 32,44 C32,43.4477153 31.5522847,43 31,43 Z M49,43 C48.4477153,43 48,43.4477153 48,44 C48,44.5522847 48.4477153,45 49,45 C49.5522847,45 50,44.5522847 50,44 C50,43.4477153 49.5522847,43 49,43 Z M10,46 C9.44771525,46 9,46.4477153 9,47 C9,47.5522847 9.44771525,48 10,48 C10.5522847,48 11,47.5522847 11,47 C11,46.4477153 10.5522847,46 10,46 Z M70,46 C69.4477153,46 69,46.4477153 69,47 C69,47.5522847 69.4477153,48 70,48 C70.5522847,48 71,47.5522847 71,47 C71,46.4477153 70.5522847,46 70,46 Z M30.283203,50.537109 C31.388277,51.136152 33.186469,52.252788 34.146484,54.328125 C35.088609,56.363457 34.76473,58.287913 34.480469,59.462891 C33.375584,58.863864 31.57796,57.747495 30.617188,55.671875 C29.675117,53.636662 29.998948,51.712158 30.283203,50.537109 Z M49.716797,50.537109 C50.001052,51.712158 50.324884,53.636662 49.382812,55.671875 C48.422041,57.747495 46.624416,58.863864 45.519531,59.462891 C45.23527,58.287913 44.911391,56.363457 45.853516,54.328125 C46.813531,52.252788 48.611723,51.136152 49.716797,50.537109 Z M17.175781,51.023438 C18.014869,50.977227 18.888689,51.036656 19.728516,51.273438 C22.23467,51.980035 23.655689,53.762904 24.392578,54.814453 C23.156332,55.304453 20.818558,56.093135 18.271484,55.375 C15.76587,54.668554 14.344597,52.885784 13.607422,51.833984 C14.435967,51.505557 15.469812,51.117386 17.175781,51.023438 Z M62.824219,51.023438 C64.530188,51.117387 65.564033,51.505557 66.392578,51.833984 C65.655403,52.885784 64.23413,54.668554 61.728516,55.375 C59.181442,56.093135 56.843668,55.30445 55.607422,54.814453 C56.344311,53.762904 57.76533,51.980034 60.271484,51.273438 C61.111311,51.036653 61.985131,50.977227 62.824219,51.023438 Z M40,58 C39.4477153,58 39,58.4477153 39,59 C39,59.5522847 39.4477153,60 40,60 C40.5522847,60 41,59.5522847 41,59 C41,58.4477153 40.5522847,58 40,58 Z M17,59 C16.4477153,59 16,59.4477153 16,60 C16,60.5522847 16.4477153,61 17,61 C17.5522847,61 18,60.5522847 18,60 C18,59.4477153 17.5522847,59 17,59 Z M63,59 C62.4477153,59 62,59.4477153 62,60 C62,60.5522847 62.4477153,61 63,61 C63.5522847,61 64,60.5522847 64,60 C64,59.4477153 63.5522847,59 63,59 Z M27.914062,60.003906 C30.295039,59.940476 32.027016,61.083834 33.013672,61.833984 C32.006045,62.635198 30.169617,63.935432 27.746094,64 C25.364896,64.06281 23.631227,62.917951 22.644531,62.167969 C23.651484,61.367078 25.489461,60.068503 27.914062,60.003906 Z M52.085938,60.003906 C54.51054,60.068506 56.348516,61.367078 57.355469,62.167969 C56.368773,62.917951 54.635104,64.062812 52.253906,64 C49.830383,63.93543 47.993955,62.635198 46.986328,61.833984 C47.972984,61.083834 49.70496,59.940472 52.085938,60.003906 Z M34,72 C33.4477153,72 33,72.4477153 33,73 C33,73.5522847 33.4477153,74 34,74 C34.5522847,74 35,73.5522847 35,73 C35,72.4477153 34.5522847,72 34,72 Z M46,72 C45.4477153,72 45,72.4477153 45,73 C45,73.5522847 45.4477153,74 46,74 C46.5522847,74 47,73.5522847 47,73 C47,72.4477153 46.5522847,72 46,72 Z" id="icon" fill="#151515"></path>
    </g>
</svg>