<?xml version="1.0" encoding="UTF-8"?>
<svg width="80px" height="80px" viewBox="0 0 80 80" version="1.1" xmlns="http://www.w3.org/2000/svg" xmlns:xlink="http://www.w3.org/1999/xlink">
    <!-- Generator: Sketch 62 (91390) - https://sketch.com -->
    <title>Icons (Decorative)/blockchain</title>
    <desc>Created with Sketch.</desc>
    <g id="Icons-(Decorative)/blockchain" stroke="none" stroke-width="1" fill="none" fill-rule="evenodd">
        <path d="M15,11 C12.802666,11 11,12.802666 11,15 L11,29 C11,31.197334 12.802666,33 15,33 L29,33 C31.197334,33 33,31.197334 33,29 L33,23 L37,23 L37,21 L33,21 L33,15 C33,12.802666 31.197334,11 29,11 L15,11 Z M51,11 C48.802666,11 47,12.802666 47,15 L47,29 C47,31.197334 48.802666,33 51,33 L57,33 L57,37 L59,37 L59,33 L65,33 C67.197334,33 69,31.197334 69,29 L69,15 C69,12.802666 67.197334,11 65,11 L51,11 Z M15,13 L29,13 C30.116666,13 31,13.883334 31,15 L31,29 C31,30.116666 30.116666,31 29,31 L15,31 C13.883334,31 13,30.116666 13,29 L13,15 C13,13.883334 13.883334,13 15,13 Z M51,13 L65,13 C66.116666,13 67,13.883334 67,15 L67,29 C67,30.116666 66.116666,31 65,31 L51,31 C49.883334,31 49,30.116666 49,29 L49,15 C49,13.883334 49.883334,13 51,13 Z M16,15 C15.4477153,15 15,15.4477153 15,16 C15,16.5522847 15.4477153,17 16,17 C16.5522847,17 17,16.5522847 17,16 C17,15.4477153 16.5522847,15 16,15 Z M20,15 C19.4477153,15 19,15.4477153 19,16 C19,16.5522847 19.4477153,17 20,17 C20.5522847,17 21,16.5522847 21,16 C21,15.4477153 20.5522847,15 20,15 Z M24,15 C23.4477153,15 23,15.4477153 23,16 C23,16.5522847 23.4477153,17 24,17 C24.5522847,17 25,16.5522847 25,16 C25,15.4477153 24.5522847,15 24,15 Z M28,15 C27.4477153,15 27,15.4477153 27,16 C27,16.5522847 27.4477153,17 28,17 C28.5522847,17 29,16.5522847 29,16 C29,15.4477153 28.5522847,15 28,15 Z M64,15 C63.4477153,15 63,15.4477153 63,16 C63,16.5522847 63.4477153,17 64,17 C64.5522847,17 65,16.5522847 65,16 C65,15.4477153 64.5522847,15 64,15 Z M64,19 C63.4477153,19 63,19.4477153 63,20 C63,20.5522847 63.4477153,21 64,21 C64.5522847,21 65,20.5522847 65,20 C65,19.4477153 64.5522847,19 64,19 Z M40,21 C39.4477153,21 39,21.4477153 39,22 C39,22.5522847 39.4477153,23 40,23 C40.5522847,23 41,22.5522847 41,22 C41,21.4477153 40.5522847,21 40,21 Z M44,21 C43.4477153,21 43,21.4477153 43,22 C43,22.5522847 43.4477153,23 44,23 C44.5522847,23 45,22.5522847 45,22 C45,21.4477153 44.5522847,21 44,21 Z M64,23 C63.4477153,23 63,23.4477153 63,24 C63,24.5522847 63.4477153,25 64,25 C64.5522847,25 65,24.5522847 65,24 C65,23.4477153 64.5522847,23 64,23 Z M64,27 C63.4477153,27 63,27.4477153 63,28 C63,28.5522847 63.4477153,29 64,29 C64.5522847,29 65,28.5522847 65,28 C65,27.4477153 64.5522847,27 64,27 Z M22,35 C21.4477153,35 21,35.4477153 21,36 C21,36.5522847 21.4477153,37 22,37 C22.5522847,37 23,36.5522847 23,36 C23,35.4477153 22.5522847,35 22,35 Z M22,39 C21.4477153,39 21,39.4477153 21,40 C21,40.5522847 21.4477153,41 22,41 C22.5522847,41 23,40.5522847 23,40 C23,39.4477153 22.5522847,39 22,39 Z M58,39 C57.4477153,39 57,39.4477153 57,40 C57,40.5522847 57.4477153,41 58,41 C58.5522847,41 59,40.5522847 59,40 C59,39.4477153 58.5522847,39 58,39 Z M21,43 L21,47 L15,47 C12.802666,47 11,48.802666 11,51 L11,65 C11,67.197334 12.802666,69 15,69 L29,69 C31.197334,69 33,67.197334 33,65 L33,51 C33,48.802666 31.197334,47 29,47 L23,47 L23,43 L21,43 Z M58,43 C57.4477153,43 57,43.4477153 57,44 C57,44.5522847 57.4477153,45 58,45 C58.5522847,45 59,44.5522847 59,44 C59,43.4477153 58.5522847,43 58,43 Z M51,47 C48.802666,47 47,48.802666 47,51 L47,57 L43,57 L43,59 L47,59 L47,65 C47,67.197334 48.802666,69 51,69 L65,69 C67.197334,69 69,67.197334 69,65 L69,51 C69,48.802666 67.197334,47 65,47 L51,47 Z M15,49 L29,49 C30.116666,49 31,49.883334 31,51 L31,65 C31,66.116666 30.116666,67 29,67 L15,67 C13.883334,67 13,66.116666 13,65 L13,51 C13,49.883334 13.883334,49 15,49 Z M51,49 L65,49 C66.116666,49 67,49.883334 67,51 L67,65 C67,66.116666 66.116666,67 65,67 L51,67 C49.883334,67 49,66.116666 49,65 L49,51 C49,49.883334 49.883334,49 51,49 Z M16,51 C15.4477153,51 15,51.4477153 15,52 C15,52.5522847 15.4477153,53 16,53 C16.5522847,53 17,52.5522847 17,52 C17,51.4477153 16.5522847,51 16,51 Z M16,55 C15.4477153,55 15,55.4477153 15,56 C15,56.5522847 15.4477153,57 16,57 C16.5522847,57 17,56.5522847 17,56 C17,55.4477153 16.5522847,55 16,55 Z M36,57 C35.4477153,57 35,57.4477153 35,58 C35,58.5522847 35.4477153,59 36,59 C36.5522847,59 37,58.5522847 37,58 C37,57.4477153 36.5522847,57 36,57 Z M40,57 C39.4477153,57 39,57.4477153 39,58 C39,58.5522847 39.4477153,59 40,59 C40.5522847,59 41,58.5522847 41,58 C41,57.4477153 40.5522847,57 40,57 Z M16,59 C15.4477153,59 15,59.4477153 15,60 C15,60.5522847 15.4477153,61 16,61 C16.5522847,61 17,60.5522847 17,60 C17,59.4477153 16.5522847,59 16,59 Z M16,63 C15.4477153,63 15,63.4477153 15,64 C15,64.5522847 15.4477153,65 16,65 C16.5522847,65 17,64.5522847 17,64 C17,63.4477153 16.5522847,63 16,63 Z M52,63 C51.4477153,63 51,63.4477153 51,64 C51,64.5522847 51.4477153,65 52,65 C52.5522847,65 53,64.5522847 53,64 C53,63.4477153 52.5522847,63 52,63 Z M56,63 C55.4477153,63 55,63.4477153 55,64 C55,64.5522847 55.4477153,65 56,65 C56.5522847,65 57,64.5522847 57,64 C57,63.4477153 56.5522847,63 56,63 Z M60,63 C59.4477153,63 59,63.4477153 59,64 C59,64.5522847 59.4477153,65 60,65 C60.5522847,65 61,64.5522847 61,64 C61,63.4477153 60.5522847,63 60,63 Z M64,63 C63.4477153,63 63,63.4477153 63,64 C63,64.5522847 63.4477153,65 64,65 C64.5522847,65 65,64.5522847 65,64 C65,63.4477153 64.5522847,63 64,63 Z" id="icon" fill="#151515"></path>
    </g>
</svg>