<?xml version="1.0" encoding="UTF-8"?>
<svg width="80px" height="80px" viewBox="0 0 80 80" version="1.1" xmlns="http://www.w3.org/2000/svg" xmlns:xlink="http://www.w3.org/1999/xlink">
    <!-- Generator: Sketch 62 (91390) - https://sketch.com -->
    <title>Icons (Decorative)/image</title>
    <desc>Created with Sketch.</desc>
    <g id="Icons-(Decorative)/image" stroke="none" stroke-width="1" fill="none" fill-rule="evenodd">
        <path d="M9,13 C6.8026661,13 5,14.802666 5,17 L5,25 L7,25 L7,17 C7,15.883334 7.8833339,15 9,15 L17,15 L17,13 L9,13 Z M22,13 C21.4477153,13 21,13.4477153 21,14 C21,14.5522847 21.4477153,15 22,15 C22.5522847,15 23,14.5522847 23,14 C23,13.4477153 22.5522847,13 22,13 Z M26,13 C25.4477153,13 25,13.4477153 25,14 C25,14.5522847 25.4477153,15 26,15 C26.5522847,15 27,14.5522847 27,14 C27,13.4477153 26.5522847,13 26,13 Z M30,13 C29.4477153,13 29,13.4477153 29,14 C29,14.5522847 29.4477153,15 30,15 C30.5522847,15 31,14.5522847 31,14 C31,13.4477153 30.5522847,13 30,13 Z M34,13 C33.4477153,13 33,13.4477153 33,14 C33,14.5522847 33.4477153,15 34,15 C34.5522847,15 35,14.5522847 35,14 C35,13.4477153 34.5522847,13 34,13 Z M38,13 C37.4477153,13 37,13.4477153 37,14 C37,14.5522847 37.4477153,15 38,15 C38.5522847,15 39,14.5522847 39,14 C39,13.4477153 38.5522847,13 38,13 Z M42,13 C41.4477153,13 41,13.4477153 41,14 C41,14.5522847 41.4477153,15 42,15 C42.5522847,15 43,14.5522847 43,14 C43,13.4477153 42.5522847,13 42,13 Z M46,13 C45.4477153,13 45,13.4477153 45,14 C45,14.5522847 45.4477153,15 46,15 C46.5522847,15 47,14.5522847 47,14 C47,13.4477153 46.5522847,13 46,13 Z M50,13 C49.4477153,13 49,13.4477153 49,14 C49,14.5522847 49.4477153,15 50,15 C50.5522847,15 51,14.5522847 51,14 C51,13.4477153 50.5522847,13 50,13 Z M54,13 C53.4477153,13 53,13.4477153 53,14 C53,14.5522847 53.4477153,15 54,15 C54.5522847,15 55,14.5522847 55,14 C55,13.4477153 54.5522847,13 54,13 Z M58,13 C57.4477153,13 57,13.4477153 57,14 C57,14.5522847 57.4477153,15 58,15 C58.5522847,15 59,14.5522847 59,14 C59,13.4477153 58.5522847,13 58,13 Z M63,13 L63,15 L71,15 C72.116666,15 73,15.883334 73,17 L73,25 L75,25 L75,17 C75,14.802666 73.197334,13 71,13 L63,13 Z M13,21 L13,22 L13,59 L67,59 L67,21 L13,21 Z M15,23 L65,23 L65,36 C64.4477153,36 64,36.4477153 64,37 C64,37.5522847 64.4477153,38 65,38 L65,42 C64.4477153,42 64,42.4477153 64,43 C64,43.5522847 64.4477153,44 65,44 L65,48 L63.492188,46.869141 C63.8055642,46.6919536 63.9995146,46.3599997 64,46 C64,45.4477153 63.5522847,45 63,45 C62.5360781,45.0004102 62.1333574,45.3198372 62.027344,45.771484 L55.492188,40.869141 C55.8055642,40.6919536 55.9995146,40.3599997 56,40 C56,39.4477153 55.5522847,39 55,39 C54.5360781,39.0004102 54.1333574,39.3198372 54.027344,39.771484 L49.988281,36.742188 L49.96875,36.757812 C49.8577194,36.3130102 49.4584496,36.0006783 49,36 C48.4477153,36 48,36.4477153 48,37 C48.0008612,37.3676303 48.2033695,37.7051439 48.527344,37.878906 L41.998047,42.958984 C41.9760669,42.4235354 41.5358992,42.0005957 41,42 C40.4477153,42 40,42.4477153 40,43 C40.0006854,43.0550241 40.0059115,43.1098977 40.015625,43.164062 L35.962891,39.736328 C35.8536537,39.3378861 35.5106359,39.0476403 35.099609,39.005859 L33.638672,37.769531 C33.8675815,37.5795349 34.0000154,37.2974863 34,37 C34,36.4477153 33.5522847,36 33,36 C32.644117,36.0005746 32.3153553,36.190245 32.136719,36.498047 L30.0625,34.744141 L23.589844,39.193359 C23.4187172,39.0679707 23.2121475,39.0002543 23,39 C22.4477153,39 22,39.4477153 22,40 C22.000734,40.0884974 22.0132127,40.1765058 22.037109,40.261719 L17.998047,43.037109 C17.9989278,43.0247525 17.9995789,43.0123807 18,43 C18,42.4477153 17.5522847,42 17,42 C16.4477153,42 16,42.4477153 16,43 C16.0008566,43.4281093 16.2741338,43.808184 16.679688,43.945312 L15,45.099609 L15,41 C15.5522847,41 16,40.5522847 16,40 C16,39.4477153 15.5522847,39 15,39 L15,35 C15.5522847,35 16,34.5522847 16,34 C16,33.4477153 15.5522847,33 15,33 L15,23 Z M6,29 C5.44771525,29 5,29.4477153 5,30 C5,30.5522847 5.44771525,31 6,31 C6.55228475,31 7,30.5522847 7,30 C7,29.4477153 6.55228475,29 6,29 Z M74,29 C73.4477153,29 73,29.4477153 73,30 C73,30.5522847 73.4477153,31 74,31 C74.5522847,31 75,30.5522847 75,30 C75,29.4477153 74.5522847,29 74,29 Z M21,30 C20.4477153,30 20,30.4477153 20,31 C20,31.5522847 20.4477153,32 21,32 C21.5522847,32 22,31.5522847 22,31 C22,30.4477153 21.5522847,30 21,30 Z M25,30 C24.4477153,30 24,30.4477153 24,31 C24,31.5522847 24.4477153,32 25,32 C25.5522847,32 26,31.5522847 26,31 C26,30.4477153 25.5522847,30 25,30 Z M37,30 C36.4477153,30 36,30.4477153 36,31 C36,31.5522847 36.4477153,32 37,32 C37.5522847,32 38,31.5522847 38,31 C38,30.4477153 37.5522847,30 37,30 Z M41,30 C40.4477153,30 40,30.4477153 40,31 C40,31.5522847 40.4477153,32 41,32 C41.5522847,32 42,31.5522847 42,31 C42,30.4477153 41.5522847,30 41,30 Z M53,30 C52.4477153,30 52,30.4477153 52,31 C52,31.5522847 52.4477153,32 53,32 C53.5522847,32 54,31.5522847 54,31 C54,30.4477153 53.5522847,30 53,30 Z M57,30 C56.4477153,30 56,30.4477153 56,31 C56,31.5522847 56.4477153,32 57,32 C57.5522847,32 58,31.5522847 58,31 C58,30.4477153 57.5522847,30 57,30 Z M6,33 C5.44771525,33 5,33.4477153 5,34 C5,34.5522847 5.44771525,35 6,35 C6.55228475,35 7,34.5522847 7,34 C7,33.4477153 6.55228475,33 6,33 Z M19,33 C18.4477153,33 18,33.4477153 18,34 C18,34.5522847 18.4477153,35 19,35 C19.5522847,35 20,34.5522847 20,34 C20,33.4477153 19.5522847,33 19,33 Z M23,33 C22.4477153,33 22,33.4477153 22,34 C22,34.5522847 22.4477153,35 23,35 C23.5522847,35 24,34.5522847 24,34 C24,33.4477153 23.5522847,33 23,33 Z M27,33 C26.4477153,33 26,33.4477153 26,34 C26,34.5522847 26.4477153,35 27,35 C27.5522847,35 28,34.5522847 28,34 C28,33.4477153 27.5522847,33 27,33 Z M31,33 C30.4477153,33 30,33.4477153 30,34 C30,34.5522847 30.4477153,35 31,35 C31.5522847,35 32,34.5522847 32,34 C32,33.4477153 31.5522847,33 31,33 Z M35,33 C34.4477153,33 34,33.4477153 34,34 C34,34.5522847 34.4477153,35 35,35 C35.5522847,35 36,34.5522847 36,34 C36,33.4477153 35.5522847,33 35,33 Z M39,33 C38.4477153,33 38,33.4477153 38,34 C38,34.5522847 38.4477153,35 39,35 C39.5522847,35 40,34.5522847 40,34 C40,33.4477153 39.5522847,33 39,33 Z M43,33 C42.4477153,33 42,33.4477153 42,34 C42,34.5522847 42.4477153,35 43,35 C43.5522847,35 44,34.5522847 44,34 C44,33.4477153 43.5522847,33 43,33 Z M47,33 C46.4477153,33 46,33.4477153 46,34 C46,34.5522847 46.4477153,35 47,35 C47.5522847,35 48,34.5522847 48,34 C48,33.4477153 47.5522847,33 47,33 Z M51,33 C50.4477153,33 50,33.4477153 50,34 C50,34.5522847 50.4477153,35 51,35 C51.5522847,35 52,34.5522847 52,34 C52,33.4477153 51.5522847,33 51,33 Z M55,33 C54.4477153,33 54,33.4477153 54,34 C54,34.5522847 54.4477153,35 55,35 C55.5522847,35 56,34.5522847 56,34 C56,33.4477153 55.5522847,33 55,33 Z M59,33 C58.4477153,33 58,33.4477153 58,34 C58,34.5522847 58.4477153,35 59,35 C59.5522847,35 60,34.5522847 60,34 C60,33.4477153 59.5522847,33 59,33 Z M63,33 C62.4477153,33 62,33.4477153 62,34 C62,34.5522847 62.4477153,35 63,35 C63.5522847,35 64,34.5522847 64,34 C64,33.4477153 63.5522847,33 63,33 Z M74,33 C73.4477153,33 73,33.4477153 73,34 C73,34.5522847 73.4477153,35 74,35 C74.5522847,35 75,34.5522847 75,34 C75,33.4477153 74.5522847,33 74,33 Z M17,36 C16.4477153,36 16,36.4477153 16,37 C16,37.5522847 16.4477153,38 17,38 C17.5522847,38 18,37.5522847 18,37 C18,36.4477153 17.5522847,36 17,36 Z M21,36 C20.4477153,36 20,36.4477153 20,37 C20,37.5522847 20.4477153,38 21,38 C21.5522847,38 22,37.5522847 22,37 C22,36.4477153 21.5522847,36 21,36 Z M25,36 C24.4477153,36 24,36.4477153 24,37 C24,37.5522847 24.4477153,38 25,38 C25.5522847,38 26,37.5522847 26,37 C26,36.4477153 25.5522847,36 25,36 Z M37,36 C36.4477153,36 36,36.4477153 36,37 C36,37.5522847 36.4477153,38 37,38 C37.5522847,38 38,37.5522847 38,37 C38,36.4477153 37.5522847,36 37,36 Z M41,36 C40.4477153,36 40,36.4477153 40,37 C40,37.5522847 40.4477153,38 41,38 C41.5522847,38 42,37.5522847 42,37 C42,36.4477153 41.5522847,36 41,36 Z M45,36 C44.4477153,36 44,36.4477153 44,37 C44,37.5522847 44.4477153,38 45,38 C45.5522847,38 46,37.5522847 46,37 C46,36.4477153 45.5522847,36 45,36 Z M53,36 C52.4477153,36 52,36.4477153 52,37 C52,37.5522847 52.4477153,38 53,38 C53.5522847,38 54,37.5522847 54,37 C54,36.4477153 53.5522847,36 53,36 Z M57,36 C56.4477153,36 56,36.4477153 56,37 C56,37.5522847 56.4477153,38 57,38 C57.5522847,38 58,37.5522847 58,37 C58,36.4477153 57.5522847,36 57,36 Z M61,36 C60.4477153,36 60,36.4477153 60,37 C60,37.5522847 60.4477153,38 61,38 C61.5522847,38 62,37.5522847 62,37 C62,36.4477153 61.5522847,36 61,36 Z M6,37 C5.44771525,37 5,37.4477153 5,38 C5,38.5522847 5.44771525,39 6,39 C6.55228475,39 7,38.5522847 7,38 C7,37.4477153 6.55228475,37 6,37 Z M74,37 C73.4477153,37 73,37.4477153 73,38 C73,38.5522847 73.4477153,39 74,39 C74.5522847,39 75,38.5522847 75,38 C75,37.4477153 74.5522847,37 74,37 Z M29.9375,37.255859 L53.269531,57 L15,57 L15,47.525391 L29.9375,37.255859 Z M19,39 C18.4477153,39 18,39.4477153 18,40 C18,40.5522847 18.4477153,41 19,41 C19.5522847,41 20,40.5522847 20,40 C20,39.4477153 19.5522847,39 19,39 Z M39,39 C38.4477153,39 38,39.4477153 38,40 C38,40.5522847 38.4477153,41 39,41 C39.5522847,41 40,40.5522847 40,40 C40,39.4477153 39.5522847,39 39,39 Z M43,39 C42.4477153,39 42,39.4477153 42,40 C42,40.5522847 42.4477153,41 43,41 C43.5522847,41 44,40.5522847 44,40 C44,39.4477153 43.5522847,39 43,39 Z M59,39 C58.4477153,39 58,39.4477153 58,40 C58,40.5522847 58.4477153,41 59,41 C59.5522847,41 60,40.5522847 60,40 C60,39.4477153 59.5522847,39 59,39 Z M63,39 C62.4477153,39 62,39.4477153 62,40 C62,40.5522847 62.4477153,41 63,41 C63.5522847,41 64,40.5522847 64,40 C64,39.4477153 63.5522847,39 63,39 Z M50.011719,39.257812 L65,50.501953 L65,57 L56.367188,57 L42.396484,45.179688 L50.011719,39.257812 Z M6,41 C5.44771525,41 5,41.4477153 5,42 C5,42.5522847 5.44771525,43 6,43 C6.55228475,43 7,42.5522847 7,42 C7,41.4477153 6.55228475,41 6,41 Z M74,41 C73.4477153,41 73,41.4477153 73,42 C73,42.5522847 73.4477153,43 74,43 C74.5522847,43 75,42.5522847 75,42 C75,41.4477153 74.5522847,41 74,41 Z M61,42 C60.4477153,42 60,42.4477153 60,43 C60,43.5522847 60.4477153,44 61,44 C61.5522847,44 62,43.5522847 62,43 C62,42.4477153 61.5522847,42 61,42 Z M6,45 C5.44771525,45 5,45.4477153 5,46 C5,46.5522847 5.44771525,47 6,47 C6.55228475,47 7,46.5522847 7,46 C7,45.4477153 6.55228475,45 6,45 Z M74,45 C73.4477153,45 73,45.4477153 73,46 C73,46.5522847 73.4477153,47 74,47 C74.5522847,47 75,46.5522847 75,46 C75,45.4477153 74.5522847,45 74,45 Z M6,49 C5.44771525,49 5,49.4477153 5,50 C5,50.5522847 5.44771525,51 6,51 C6.55228475,51 7,50.5522847 7,50 C7,49.4477153 6.55228475,49 6,49 Z M74,49 C73.448,49 73,49.448 73,50 C73,50.552 73.448,51 74,51 C74.552,51 75,50.552 75,50 C75,49.448 74.552,49 74,49 Z M5,55 L5,63 C5,65.197334 6.8026661,67 9,67 L17,67 L17,65 L9,65 C7.8833339,65 7,64.116666 7,63 L7,55 L5,55 Z M73,55 L73,63 C73,64.116666 72.116666,65 71,65 L63,65 L63,67 L71,67 C73.197334,67 75,65.197334 75,63 L75,55 L73,55 Z M22,65 C21.4477153,65 21,65.4477153 21,66 C21,66.5522847 21.4477153,67 22,67 C22.5522847,67 23,66.5522847 23,66 C23,65.4477153 22.5522847,65 22,65 Z M26,65 C25.4477153,65 25,65.4477153 25,66 C25,66.5522847 25.4477153,67 26,67 C26.5522847,67 27,66.5522847 27,66 C27,65.4477153 26.5522847,65 26,65 Z M30,65 C29.4477153,65 29,65.4477153 29,66 C29,66.5522847 29.4477153,67 30,67 C30.5522847,67 31,66.5522847 31,66 C31,65.4477153 30.5522847,65 30,65 Z M34,65 C33.4477153,65 33,65.4477153 33,66 C33,66.5522847 33.4477153,67 34,67 C34.5522847,67 35,66.5522847 35,66 C35,65.4477153 34.5522847,65 34,65 Z M38,65 C37.4477153,65 37,65.4477153 37,66 C37,66.5522847 37.4477153,67 38,67 C38.5522847,67 39,66.5522847 39,66 C39,65.4477153 38.5522847,65 38,65 Z M42,65 C41.4477153,65 41,65.4477153 41,66 C41,66.5522847 41.4477153,67 42,67 C42.5522847,67 43,66.5522847 43,66 C43,65.4477153 42.5522847,65 42,65 Z M46,65 C45.4477153,65 45,65.4477153 45,66 C45,66.5522847 45.4477153,67 46,67 C46.5522847,67 47,66.5522847 47,66 C47,65.4477153 46.5522847,65 46,65 Z M50,65 C49.4477153,65 49,65.4477153 49,66 C49,66.5522847 49.4477153,67 50,67 C50.5522847,67 51,66.5522847 51,66 C51,65.4477153 50.5522847,65 50,65 Z M54,65 C53.4477153,65 53,65.4477153 53,66 C53,66.5522847 53.4477153,67 54,67 C54.5522847,67 55,66.5522847 55,66 C55,65.4477153 54.5522847,65 54,65 Z M58,65 C57.4477153,65 57,65.4477153 57,66 C57,66.5522847 57.4477153,67 58,67 C58.5522847,67 59,66.5522847 59,66 C59,65.4477153 58.5522847,65 58,65 Z" id="icon" fill="#151515"></path>
    </g>
</svg>