<?xml version="1.0" encoding="UTF-8"?>
<svg width="80px" height="80px" viewBox="0 0 80 80" version="1.1" xmlns="http://www.w3.org/2000/svg" xmlns:xlink="http://www.w3.org/1999/xlink">
    <!-- Generator: Sketch 62 (91390) - https://sketch.com -->
    <title>Icons (Decorative)/support</title>
    <desc>Created with Sketch.</desc>
    <g id="Icons-(Decorative)/support" stroke="none" stroke-width="1" fill="none" fill-rule="evenodd">
        <path d="M11,8 C8.794,8 7,9.794 7,12 L7,72.414062 L17.414062,62 L45.050781,62 C45.021781,61.632 45,61.258047 45,60.873047 C45,60.578047 45.024922,60.29 45.044922,60 L16.585938,60 L9,67.585938 L9,12 C9,10.897 9.897,10 11,10 L69,10 C70.103,10 71,10.897 71,12 L71,48.558594 C71.681,48.576594 72.35,48.644531 73,48.769531 L73,12 C73,9.794 71.206,8 69,8 L11,8 Z M14,14 C13.4477153,14 13,14.4477153 13,15 C13,15.5522847 13.4477153,16 14,16 C14.5522847,16 15,15.5522847 15,15 C15,14.4477153 14.5522847,14 14,14 Z M18,14 C17.4477153,14 17,14.4477153 17,15 C17,15.5522847 17.4477153,16 18,16 C18.5522847,16 19,15.5522847 19,15 C19,14.4477153 18.5522847,14 18,14 Z M22,14 C21.4477153,14 21,14.4477153 21,15 C21,15.5522847 21.4477153,16 22,16 C22.5522847,16 23,15.5522847 23,15 C23,14.4477153 22.5522847,14 22,14 Z M26,14 C25.4477153,14 25,14.4477153 25,15 C25,15.5522847 25.4477153,16 26,16 C26.5522847,16 27,15.5522847 27,15 C27,14.4477153 26.5522847,14 26,14 Z M30,14 C29.4477153,14 29,14.4477153 29,15 C29,15.5522847 29.4477153,16 30,16 C30.5522847,16 31,15.5522847 31,15 C31,14.4477153 30.5522847,14 30,14 Z M34,14 C33.4477153,14 33,14.4477153 33,15 C33,15.5522847 33.4477153,16 34,16 C34.5522847,16 35,15.5522847 35,15 C35,14.4477153 34.5522847,14 34,14 Z M38,14 C37.4477153,14 37,14.4477153 37,15 C37,15.5522847 37.4477153,16 38,16 C38.5522847,16 39,15.5522847 39,15 C39,14.4477153 38.5522847,14 38,14 Z M42,14 C41.4477153,14 41,14.4477153 41,15 C41,15.5522847 41.4477153,16 42,16 C42.5522847,16 43,15.5522847 43,15 C43,14.4477153 42.5522847,14 42,14 Z M46,14 C45.4477153,14 45,14.4477153 45,15 C45,15.5522847 45.4477153,16 46,16 C46.5522847,16 47,15.5522847 47,15 C47,14.4477153 46.5522847,14 46,14 Z M50,14 C49.4477153,14 49,14.4477153 49,15 C49,15.5522847 49.4477153,16 50,16 C50.5522847,16 51,15.5522847 51,15 C51,14.4477153 50.5522847,14 50,14 Z M54,14 C53.4477153,14 53,14.4477153 53,15 C53,15.5522847 53.4477153,16 54,16 C54.5522847,16 55,15.5522847 55,15 C55,14.4477153 54.5522847,14 54,14 Z M58,14 C57.4477153,14 57,14.4477153 57,15 C57,15.5522847 57.4477153,16 58,16 C58.5522847,16 59,15.5522847 59,15 C59,14.4477153 58.5522847,14 58,14 Z M62,14 C61.4477153,14 61,14.4477153 61,15 C61,15.5522847 61.4477153,16 62,16 C62.5522847,16 63,15.5522847 63,15 C63,14.4477153 62.5522847,14 62,14 Z M66,14 C65.4477153,14 65,14.4477153 65,15 C65,15.5522847 65.4477153,16 66,16 C66.5522847,16 67,15.5522847 67,15 C67,14.4477153 66.5522847,14 66,14 Z M14,18 C13.4477153,18 13,18.4477153 13,19 C13,19.5522847 13.4477153,20 14,20 C14.5522847,20 15,19.5522847 15,19 C15,18.4477153 14.5522847,18 14,18 Z M66,18 C65.4477153,18 65,18.4477153 65,19 C65,19.5522847 65.4477153,20 66,20 C66.5522847,20 67,19.5522847 67,19 C67,18.4477153 66.5522847,18 66,18 Z M14,22 C13.4477153,22 13,22.4477153 13,23 C13,23.5522847 13.4477153,24 14,24 C14.5522847,24 15,23.5522847 15,23 C15,22.4477153 14.5522847,22 14,22 Z M66,22 C65.4477153,22 65,22.4477153 65,23 C65,23.5522847 65.4477153,24 66,24 C66.5522847,24 67,23.5522847 67,23 C67,22.4477153 66.5522847,22 66,22 Z M14,26 C13.4477153,26 13,26.4477153 13,27 C13,27.5522847 13.4477153,28 14,28 C14.5522847,28 15,27.5522847 15,27 C15,26.4477153 14.5522847,26 14,26 Z M66,26 C65.4477153,26 65,26.4477153 65,27 C65,27.5522847 65.4477153,28 66,28 C66.5522847,28 67,27.5522847 67,27 C67,26.4477153 66.5522847,26 66,26 Z M14,30 C13.4477153,30 13,30.4477153 13,31 C13,31.5522847 13.4477153,32 14,32 C14.5522847,32 15,31.5522847 15,31 C15,30.4477153 14.5522847,30 14,30 Z M66,30 C65.4477153,30 65,30.4477153 65,31 C65,31.5522847 65.4477153,32 66,32 C66.5522847,32 67,31.5522847 67,31 C67,30.4477153 66.5522847,30 66,30 Z M14,34 C13.4477153,34 13,34.4477153 13,35 C13,35.5522847 13.4477153,36 14,36 C14.5522847,36 15,35.5522847 15,35 C15,34.4477153 14.5522847,34 14,34 Z M66,34 C65.4477153,34 65,34.4477153 65,35 C65,35.5522847 65.4477153,36 66,36 C66.5522847,36 67,35.5522847 67,35 C67,34.4477153 66.5522847,34 66,34 Z M14,38 C13.4477153,38 13,38.4477153 13,39 C13,39.5522847 13.4477153,40 14,40 C14.5522847,40 15,39.5522847 15,39 C15,38.4477153 14.5522847,38 14,38 Z M66,38 C65.4477153,38 65,38.4477153 65,39 C65,39.5522847 65.4477153,40 66,40 C66.5522847,40 67,39.5522847 67,39 C67,38.4477153 66.5522847,38 66,38 Z M14,42 C13.4477153,42 13,42.4477153 13,43 C13,43.5522847 13.4477153,44 14,44 C14.5522847,44 15,43.5522847 15,43 C15,42.4477153 14.5522847,42 14,42 Z M66,42 C65.4477153,42 65,42.4477153 65,43 C65,43.5522847 65.4477153,44 66,44 C66.5522847,44 67,43.5522847 67,43 C67,42.4477153 66.5522847,42 66,42 Z M14,46 C13.4477153,46 13,46.4477153 13,47 C13,47.5522847 13.4477153,48 14,48 C14.5522847,48 15,47.5522847 15,47 C15,46.4477153 14.5522847,46 14,46 Z M66,46 C65.4477153,46 65,46.4477153 65,47 C65,47.5522847 65.4477153,48 66,48 C66.5522847,48 67,47.5522847 67,47 C67,46.4477153 66.5522847,46 66,46 Z M14,50 C13.4477153,50 13,50.4477153 13,51 C13,51.5522847 13.4477153,52 14,52 C14.5522847,52 15,51.5522847 15,51 C15,50.4477153 14.5522847,50 14,50 Z M57.332031,51.541016 C52.186031,51.541016 48,55.727047 48,60.873047 C48,66.418047 52.029313,69.652437 56.695312,73.398438 C58.887313,75.157438 61.155484,76.977563 63.271484,79.226562 L64,80 L64.728516,79.226562 C66.844516,76.977563 69.112688,75.159391 71.304688,73.400391 C75.970687,69.654391 80,66.418047 80,60.873047 C80,55.727047 75.813969,51.541016 70.667969,51.541016 C68.119969,51.541016 65.749,52.553516 64,54.353516 C62.251,52.553516 59.880031,51.541016 57.332031,51.541016 Z M57.332031,53.541016 C59.657031,53.541016 61.797219,54.615281 63.199219,56.488281 L64,57.558594 L64.800781,56.488281 C66.202781,54.615281 68.342969,53.541016 70.667969,53.541016 C74.710969,53.541016 78,56.830047 78,60.873047 C78,65.459047 74.492734,68.275844 70.052734,71.839844 C68.144734,73.371844 66.008,75.085516 64,77.103516 C61.992,75.084516 59.855266,73.371844 57.947266,71.839844 C53.507266,68.275844 50,65.459047 50,60.873047 C50,56.830047 53.289031,53.541016 57.332031,53.541016 Z M14,54 C13.4477153,54 13,54.4477153 13,55 C13,55.5522847 13.4477153,56 14,56 C14.5522847,56 15,55.5522847 15,55 C15,54.4477153 14.5522847,54 14,54 Z M18,54 C17.4477153,54 17,54.4477153 17,55 C17,55.5522847 17.4477153,56 18,56 C18.5522847,56 19,55.5522847 19,55 C19,54.4477153 18.5522847,54 18,54 Z M22,54 C21.4477153,54 21,54.4477153 21,55 C21,55.5522847 21.4477153,56 22,56 C22.5522847,56 23,55.5522847 23,55 C23,54.4477153 22.5522847,54 22,54 Z M26,54 C25.4477153,54 25,54.4477153 25,55 C25,55.5522847 25.4477153,56 26,56 C26.5522847,56 27,55.5522847 27,55 C27,54.4477153 26.5522847,54 26,54 Z M30,54 C29.4477153,54 29,54.4477153 29,55 C29,55.5522847 29.4477153,56 30,56 C30.5522847,56 31,55.5522847 31,55 C31,54.4477153 30.5522847,54 30,54 Z M34,54 C33.4477153,54 33,54.4477153 33,55 C33,55.5522847 33.4477153,56 34,56 C34.5522847,56 35,55.5522847 35,55 C35,54.4477153 34.5522847,54 34,54 Z M38,54 C37.4477153,54 37,54.4477153 37,55 C37,55.5522847 37.4477153,56 38,56 C38.5522847,56 39,55.5522847 39,55 C39,54.4477153 38.5522847,54 38,54 Z M42,54 C41.4477153,54 41,54.4477153 41,55 C41,55.5522847 41.4477153,56 42,56 C42.5522847,56 43,55.5522847 43,55 C43,54.4477153 42.5522847,54 42,54 Z M46,54 C45.4477153,54 45,54.4477153 45,55 C45,55.5522847 45.4477153,56 46,56 C46.5522847,56 47,55.5522847 47,55 C47,54.4477153 46.5522847,54 46,54 Z" id="icon" fill="#151515"></path>
    </g>
</svg>